<?xml version="1.0" encoding="UTF-8" standalone="no"?>
<svg
   width="128"
   height="128"
   viewBox="0 0 128 128"
   fill="none"
   version="1.1"
   id="svg102"
   sodipodi:docname="docker-lamp.svg"
   inkscape:version="1.2.2 (b0a8486541, 2022-12-01)"
   xmlns:inkscape="http://www.inkscape.org/namespaces/inkscape"
   xmlns:sodipodi="http://sodipodi.sourceforge.net/DTD/sodipodi-0.dtd"
   xmlns="http://www.w3.org/2000/svg"
   xmlns:svg="http://www.w3.org/2000/svg">
  <sodipodi:namedview
     id="namedview104"
     pagecolor="#ffffff"
     bordercolor="#666666"
     borderopacity="1.0"
     inkscape:showpageshadow="2"
     inkscape:pageopacity="0.0"
     inkscape:pagecheckerboard="0"
     inkscape:deskcolor="#d1d1d1"
     showgrid="false"
     inkscape:zoom="3.1695582"
     inkscape:cx="-7.729784"
     inkscape:cy="39.753175"
     inkscape:window-width="1920"
     inkscape:window-height="1044"
     inkscape:window-x="0"
     inkscape:window-y="36"
     inkscape:window-maximized="1"
     inkscape:current-layer="svg102" />
  <g
     id="g378"
     transform="matrix(6.4000046,0,0,6.4000021,-12.799986,-12.799995)">
    <path
       fill-rule="evenodd"
       clip-rule="evenodd"
       d="M 9.81458,2.10326 C 9.92353,2.10442 10.0277,2.09054 10.127,2.06163 c 1.3052,-0.08551 2.6104,-0.08204 3.9155,0.01041 1.1833,0.0922 2.3288,0.34895 3.4365,0.77023 1.8415,0.75813 3.1015,2.07309 3.7801,3.94487 0.3881,1.12694 0.6172,2.28578 0.6873,3.47646 0.097,1.4952 0.0623,2.9871 -0.1041,4.4757 -0.1246,1.0463 -0.3953,2.0525 -0.8123,3.0185 -0.7733,1.675 -2.0263,2.8304 -3.7593,3.4661 -1.4042,0.4745 -2.8483,0.7243 -4.332,0.7494 C 11.2697,22.0601 9.61739,21.9352 7.98179,21.5986 4.97127,20.928 3.11417,19.0926 2.41052,16.0924 2.11192,14.7419 1.97654,13.3749 2.00439,11.9915 1.97107,10.5204 2.12727,9.07008 2.47301,7.64065 3.21065,4.83553 4.99136,3.09728 7.81518,2.42593 8.47317,2.26506 9.13964,2.15751 9.81458,2.10326 Z"
       fill="url(#paint0_linear_3_29)"
       id="path2"
       style="fill:url(#paint0_linear_3_29)" />
    <g
       clip-path="url(#clip0_3_29)"
       id="g90">
      <path
         fill-rule="evenodd"
         clip-rule="evenodd"
         d="m 17.2261,8.11408 c 0.0378,0.00518 0.0668,0.02591 0.0869,0.0622 0.0437,0.05024 0.0958,0.08479 0.1566,0.10365 0.315,0.20839 0.6049,0.45717 0.8695,0.74635 0.0182,0.05299 0.0472,0.09791 0.087,0.13475 0.0619,0.0637 0.1257,0.12244 0.1913,0.17622 0.058,0.05529 0.1101,0.11748 0.1565,0.18659 0.0283,0.09514 0.0804,0.16424 0.1565,0.20731 0.111,0.13355 0.2096,0.27865 0.2957,0.43535 0.063,0.1166 0.1325,0.2271 0.2087,0.3317 0.2529,0.4617 0.421,0.9661 0.5043,1.5134 -0.0084,0.019 -0.0141,0.0398 -0.0174,0.0622 0.03,0.1746 0.0532,0.3473 0.0696,0.5183 0,0.1106 0,0.2212 0,0.3317 -0.0287,0.2325 -0.0577,0.4674 -0.087,0.7049 -0.1113,0.594 -0.3548,1.095 -0.7304,1.5031 -0.0902,0.0847 -0.1829,0.1642 -0.2782,0.2384 -0.0843,0.0397 -0.1596,0.095 -0.2261,0.1658 -0.3455,0.2403 -0.7165,0.4062 -1.1131,0.4976 -0.0762,7e-4 -0.1544,-0.0062 -0.2348,-0.0207 -0.0086,-0.1035 -0.0115,-0.2071 -0.0087,-0.311 0.0132,-0.0537 0.0421,-0.0917 0.087,-0.114 0.1567,-0.045 0.3133,-0.0899 0.4696,-0.1348 0.1046,-0.0072 0.1973,-0.0487 0.2782,-0.1244 0.2655,-0.1652 0.5206,-0.3518 0.7652,-0.5597 0.0522,-0.0484 0.0986,-0.1037 0.1392,-0.1659 0.2988,-0.464 0.4727,-0.9892 0.5217,-1.5756 0.0107,-0.0023 0.0194,-0.0092 0.0261,-0.0207 0.0116,-0.2005 0.0116,-0.4008 0,-0.6013 0,-0.0528 -0.0145,-0.0943 -0.0435,-0.1243 0,-0.0139 0,-0.0277 0,-0.0415 0.0136,-0.0991 0.002,-0.1959 -0.0348,-0.2903 -0.0527,-0.1989 -0.1078,-0.3993 -0.1652,-0.6012 -0.0658,-0.15 -0.1267,-0.3021 -0.1826,-0.4561 -0.0262,-0.118 -0.0784,-0.2148 -0.1565,-0.2902 C 18.967,10.5303 18.9206,10.4543 18.8783,10.3738 18.8502,10.3002 18.8097,10.238 18.7565,10.1873 18.7049,10.0643 18.6296,9.96751 18.5304,9.89701 18.4145,9.76571 18.2986,9.6344 18.1826,9.5031 18.1652,9.44091 18.1304,9.39945 18.0783,9.37871 18.0274,9.35265 17.9868,9.31119 17.9565,9.25432 17.9094,9.19817 17.8573,9.1498 17.8,9.1092 17.7575,9.0873 17.717,9.05965 17.6783,9.02628 c -0.0058,0.02073 -0.0116,0.04146 -0.0174,0.06219 0.073,0.41705 0.0643,0.83169 -0.0261,1.24393 -0.0179,0.0568 -0.0439,0.1051 -0.0783,0.1451 -0.0363,0.0225 -0.0595,0.057 -0.0695,0.1037 0.0022,0.0153 -7e-4,0.0291 -0.0087,0.0414 -0.0782,0.0724 -0.1506,0.1519 -0.2174,0.2384 -0.0644,0.0488 -0.134,0.0799 -0.2087,0.0933 -0.1487,0.0166 -0.2879,0.065 -0.4174,0.1451 -0.0458,0.0343 -0.0921,0.0689 -0.1391,0.1037 -0.0707,0.0082 -0.1229,0.0497 -0.1566,0.1244 -0.1848,0.2278 -0.3268,0.4904 -0.4261,0.7878 -0.0453,0.0653 -0.1004,0.086 -0.1652,0.0622 -0.0021,-0.0225 -0.0137,-0.0363 -0.0348,-0.0415 -0.057,-0.0205 -0.115,-0.0343 -0.1739,-0.0414 0.0077,-0.0758 0.0135,-0.1518 0.0174,-0.2281 0.0517,-0.1648 0.1213,-0.3168 0.2087,-0.4561 0.1035,-0.1717 0.2194,-0.3306 0.3478,-0.4768 2e-4,-0.0315 0.0118,-0.0557 0.0348,-0.0726 0.227,-0.18 0.4763,-0.2975 0.7479,-0.3524 0.2433,-0.12 0.3796,-0.3377 0.4086,-0.65306 0.0116,-0.12439 0.0116,-0.24878 0,-0.37317 C 17.2808,9.315 17.2518,9.14915 17.2174,8.98481 17.1361,8.73896 17.0636,8.49018 17,8.23847 17.0034,8.16576 16.9918,8.09666 16.9652,8.03115 16.9768,8.02424 16.9884,8.01733 17,8.01042 c 0.0727,0.04571 0.148,0.08027 0.2261,0.10366 z"
         fill="#274d82"
         id="path4" />
      <path
         opacity="0.318"
         fill-rule="evenodd"
         clip-rule="evenodd"
         d="m 16.9304,7.98958 c 0.0406,0 0.0812,0 0.1218,0 0.0621,0.03256 0.1201,0.07402 0.1739,0.12439 C 17.148,8.09058 17.0727,8.05602 17,8.01031 16.9884,8.01722 16.9768,8.02413 16.9652,8.03104 16.9918,8.09655 17.0034,8.16565 17,8.23836 16.961,8.16376 16.9378,8.08083 16.9304,7.98958 Z"
         fill="#5b5a67"
         id="path6" />
      <path
         opacity="0.204"
         fill-rule="evenodd"
         clip-rule="evenodd"
         d="m 17.313,8.17622 c 0.0652,0.00892 0.1173,0.04366 0.1566,0.10421 C 17.4088,8.26147 17.3567,8.22673 17.313,8.17622 Z"
         fill="#725756"
         id="path8" />
      <path
         opacity="0.929"
         fill-rule="evenodd"
         clip-rule="evenodd"
         d="m 17.8,9.10915 c 0.0573,0.04081 0.1094,0.08944 0.1565,0.14589 C 17.8893,9.23017 17.8372,9.18153 17.8,9.10915 Z"
         fill="#6a5a5c"
         id="path10" />
      <path
         opacity="0.31"
         fill-rule="evenodd"
         clip-rule="evenodd"
         d="m 18.3391,9.02622 c 0.1037,0.08904 0.1965,0.1927 0.2783,0.31097 C 18.5518,9.28341 18.488,9.22467 18.4261,9.16097 18.3863,9.12413 18.3573,9.07921 18.3391,9.02622 Z"
         fill="#715b59"
         id="path12" />
      <path
         opacity="0.01"
         fill-rule="evenodd"
         clip-rule="evenodd"
         d="M 18.0783,9.37866 C 18.1304,9.3995 18.1652,9.44119 18.1826,9.50371 18.142,9.46898 18.1073,9.42729 18.0783,9.37866 Z"
         fill="#886153"
         id="path14" />
      <path
         opacity="0.749"
         fill-rule="evenodd"
         clip-rule="evenodd"
         d="M 18.7739,9.52378 C 18.8341,9.58421 18.8862,9.65332 18.9304,9.7311 18.8543,9.68803 18.8022,9.61892 18.7739,9.52378 Z"
         fill="#685e5b"
         id="path16" />
      <path
         opacity="0.773"
         fill-rule="evenodd"
         clip-rule="evenodd"
         d="m 18.5304,9.89695 c 0.0992,0.0705 0.1745,0.16725 0.2261,0.29025 -0.0876,-0.0837 -0.163,-0.1805 -0.2261,-0.29025 z"
         fill="#5f5960"
         id="path18" />
      <path
         opacity="0.965"
         fill-rule="evenodd"
         clip-rule="evenodd"
         d="m 19.2261,10.1665 c 0.0895,0.0928 0.1591,0.2034 0.2087,0.3317 -0.0762,-0.1046 -0.1457,-0.2152 -0.2087,-0.3317 z"
         fill="#785756"
         id="path20" />
      <path
         opacity="0.286"
         fill-rule="evenodd"
         clip-rule="evenodd"
         d="m 18.7565,10.1872 c 0.0532,0.051 0.0937,0.1136 0.1218,0.1876 -0.0604,-0.0446 -0.101,-0.1071 -0.1218,-0.1876 z"
         fill="#675b5b"
         id="path22" />
      <path
         opacity="0.986"
         fill-rule="evenodd"
         clip-rule="evenodd"
         d="m 18.1652,10.2909 c 0.0669,0.0342 0.1277,0.0826 0.1826,0.1451 0.2871,0.4008 0.5074,0.85 0.6609,1.3475 0.3925,1.8524 -0.1959,2.9408 -1.7652,3.2653 -0.0206,-0.0245 -0.0322,-0.0556 -0.0348,-0.0933 0.0502,-0.4633 0.0647,-0.9333 0.0435,-1.4098 0.0104,-0.4557 -0.1549,-0.784 -0.4957,-0.9847 -0.1238,-0.0337 -0.2455,-0.0751 -0.3652,-0.1244 -0.0344,-0.0518 -0.0431,-0.1105 -0.0261,-0.1762 0.0584,-0.2121 0.1541,-0.3952 0.287,-0.5494 0.0521,-0.0346 0.1043,-0.0691 0.1565,-0.1037 0.3274,-0.0792 0.6231,-0.2382 0.887,-0.4768 0.1944,-0.2492 0.351,-0.5291 0.4695,-0.8396 z"
         fill="#fc7d00"
         id="path24" />
      <path
         opacity="0.016"
         fill-rule="evenodd"
         clip-rule="evenodd"
         d="m 17.5565,10.4774 c -0.0101,0.0469 -0.0332,0.0816 -0.0695,0.1043 0.01,-0.0469 0.0332,-0.0816 0.0695,-0.1043 z"
         fill="#746149"
         id="path26" />
      <path
         opacity="0.506"
         fill-rule="evenodd"
         clip-rule="evenodd"
         d="m 19.0174,10.6018 c 0.0781,0.0755 0.1303,0.1722 0.1565,0.2903 -0.0608,-0.0896 -0.113,-0.1863 -0.1565,-0.2903 z"
         fill="#646060"
         id="path28" />
      <path
         opacity="0.161"
         fill-rule="evenodd"
         clip-rule="evenodd"
         d="m 17.0522,10.9543 c -0.1326,0.0676 -0.2718,0.1162 -0.4174,0.1459 0.1295,-0.0806 0.2687,-0.1293 0.4174,-0.1459 z"
         fill="#5d5965"
         id="path30" />
      <path
         opacity="0.259"
         fill-rule="evenodd"
         clip-rule="evenodd"
         d="m 16.4957,11.203 c -0.0491,0.0468 -0.1013,0.0885 -0.1566,0.1251 0.0337,-0.0751 0.0859,-0.1168 0.1566,-0.1251 z"
         fill="#685f60"
         id="path32" />
      <path
         opacity="0.278"
         fill-rule="evenodd"
         clip-rule="evenodd"
         d="m 16.113,10.9335 c -0.1284,0.1462 -0.2443,0.3051 -0.3478,0.4769 0.0593,-0.1341 0.1317,-0.2585 0.2174,-0.3732 0.0323,-0.056 0.0758,-0.0905 0.1304,-0.1037 z"
         fill="#635d5f"
         id="path34" />
      <path
         opacity="0.98"
         fill-rule="evenodd"
         clip-rule="evenodd"
         d="m 15.5565,11.8665 c -0.0039,0.0762 -0.0097,0.1523 -0.0174,0.228 0.0589,0.0072 0.1169,0.021 0.1739,0.0415 0.0211,0.0051 0.0327,0.0189 0.0348,0.0414 -0.0836,-0.0067 -0.1619,-0.0344 -0.2348,-0.0829 -0.0098,-0.0843 0.0047,-0.1603 0.0435,-0.228 z"
         fill="#5c5763"
         id="path36" />
      <path
         opacity="0.098"
         fill-rule="evenodd"
         clip-rule="evenodd"
         d="m 19.9391,12.0116 c 0.0236,0.1093 0.041,0.2199 0.0522,0.3317 0,0.0829 0,0.1658 0,0.2488 -0.0164,-0.171 -0.0396,-0.3438 -0.0696,-0.5183 0.0033,-0.0225 0.009,-0.0432 0.0174,-0.0622 z"
         fill="#5c585f"
         id="path38" />
      <path
         opacity="0.733"
         fill-rule="evenodd"
         clip-rule="evenodd"
         d="m 19.5217,11.9494 c 0.0368,0.0944 0.0484,0.1911 0.0348,0.2902 -0.0177,-0.0928 -0.0293,-0.1896 -0.0348,-0.2902 z"
         fill="#625c59"
         id="path40" />
      <path
         opacity="0.648"
         fill-rule="evenodd"
         clip-rule="evenodd"
         d="m 19.5565,12.2811 c 0.029,0.03 0.0435,0.0715 0.0435,0.1244 0.0116,0.2004 0.0116,0.4008 0,0.6012 -0.0067,0.0115 -0.0154,0.0184 -0.0261,0.0207 0.0035,-0.2492 -0.0023,-0.498 -0.0174,-0.7463 z"
         fill="#515669"
         id="path42" />
      <path
         opacity="0.999"
         fill-rule="evenodd"
         clip-rule="evenodd"
         d="m 3.9913,13.0689 c 0.27247,0 0.54493,0 0.81739,0 0.00829,0.6372 0.01989,1.2729 0.03479,1.9073 -0.01729,0.2105 -0.02309,0.4247 -0.01739,0.6427 0.05217,0 0.10434,0 0.15652,0 0.40604,-0.0049 0.81184,0.0021 1.21739,0.0207 0.13012,0.0206 0.26344,0.0275 0.4,0.0208 0,0.1382 0,0.2764 0,0.4146 -0.55656,0.0035 -1.11307,0 -1.66957,-0.0104 C 4.71531,16.0614 4.50082,16.0476 4.28695,16.0232 4.20972,15.9725 4.14306,15.9069 4.08695,15.8262 4.04722,15.7498 4.02693,15.6669 4.02609,15.5774 4.03753,15.5506 4.04333,15.5195 4.04348,15.4841 4.04228,15.443 4.03069,15.4119 4.00869,15.3909 c 0,-0.0346 0,-0.0691 0,-0.1037 0.02319,-0.2488 0.02319,-0.4976 0,-0.7463 0.00466,-0.0332 -0.00114,-0.0608 -0.01739,-0.083 0,-0.463 0,-0.926 0,-1.389 z"
         fill="#214c84"
         id="path44" />
      <path
         opacity="0.999"
         fill-rule="evenodd"
         clip-rule="evenodd"
         d="m 7.06956,13.0689 c 0.67249,-0.0035 1.34496,0 2.0174,0.0104 0.08542,0.0046 0.16659,0.0218 0.24347,0.0518 0.09343,0.0349 0.18618,0.0764 0.27827,0.1244 0.03006,0.0128 0.05615,0.0335 0.07826,0.0622 0.07754,0.146 0.12393,0.305 0.13913,0.4768 0.02918,0.4766 0.03208,0.9534 0.00869,1.4305 -0.0173,0.2658 -0.02311,0.5354 -0.01739,0.8085 -0.25508,0 -0.51014,0 -0.76522,0 0.0056,-0.1214 -1.9e-4,-0.2389 -0.01739,-0.3524 -0.01544,-0.2413 -0.02123,-0.4832 -0.01739,-0.7256 -0.19386,-0.0276 -0.39386,-0.0415 -0.6,-0.0415 -0.2,0.0035 -0.4,0.0069 -0.6,0.0104 0.00967,0.0079 0.01546,0.0183 0.01739,0.0311 0,0.3732 0,0.7463 0,1.1195 -0.22029,0 -0.44057,0 -0.66087,0 -0.03069,-0.0199 -0.06548,-0.0268 -0.10435,-0.0207 0,-0.9952 0,-1.9903 0,-2.9854 z m 0.8174,0.4354 c 0.31888,-0.0035 0.63774,0 0.95652,0.0103 0.08948,0.0518 0.13875,0.1382 0.14782,0.2592 0.02193,0.2619 0.03063,0.5245 0.02609,0.7878 -0.39421,0 -0.7884,0 -1.18261,0 -0.00252,-0.339 0.00618,-0.6777 0.02609,-1.0159 0.01247,-0.0112 0.02116,-0.0251 0.02609,-0.0414 z"
         fill="#204c84"
         id="path46" />
      <path
         opacity="0.977"
         fill-rule="evenodd"
         clip-rule="evenodd"
         d="m 10.2696,13.0689 c 0.8406,-0.0035 1.6811,0 2.5217,0.0104 0.2062,5e-4 0.4033,0.0489 0.5913,0.1451 0.1416,0.1438 0.2112,0.3235 0.2087,0.539 0.0116,0.152 0.0232,0.3041 0.0348,0.4561 -0.0042,0.597 -0.0042,1.2017 0,1.814 -0.2408,0.0528 -0.4814,0.0528 -0.7218,0 -0.0364,0.0286 -0.0683,0.0217 -0.0956,-0.0207 -0.0144,-0.7178 -0.0231,-1.4365 -0.0261,-2.1561 -0.0019,-0.303 -0.1265,-0.4274 -0.3739,-0.3732 -0.0189,0.0242 -0.0333,0.0518 -0.0435,0.083 -0.013,0.1034 -0.0246,0.2071 -0.0348,0.3109 -0.0188,0.7256 -0.0333,1.4512 -0.0434,2.1769 -0.2262,0.0034 -0.4523,0 -0.6783,-0.0104 C 11.6,16.0335 11.5913,16.0232 11.5826,16.0128 11.5647,15.9242 11.5531,15.8344 11.5478,15.7433 11.542,15.2319 11.5362,14.7205 11.5304,14.2091 11.5283,13.987 11.5167,13.7659 11.4957,13.5457 c -0.0066,-0.019 -0.0152,-0.0362 -0.0261,-0.0518 -0.0374,-0.012 -0.0751,-0.0224 -0.1131,-0.0311 -0.1006,0.001 -0.202,0.0148 -0.3043,0.0415 0.0029,0.7671 0,1.5342 -0.0087,2.3012 -0.0052,0.0708 -0.0168,0.1399 -0.0348,0.2073 -0.0318,0.0326 -0.0694,0.0499 -0.113,0.0518 -0.1863,0.0175 -0.3718,0.0106 -0.5566,-0.0207 -0.0278,-0.0677 -0.0423,-0.1403 -0.0434,-0.2177 -0.024,-0.9188 -0.0327,-1.8379 -0.0261,-2.7573 z"
         fill="#fc7c00"
         id="path48" />
      <path
         opacity="0.999"
         fill-rule="evenodd"
         clip-rule="evenodd"
         d="m 16.8261,13.6079 c -0.0232,0.1866 -0.0232,0.3732 0,0.5598 0.0036,0.1772 -0.0428,0.3326 -0.1391,0.4664 -0.0457,0.0445 -0.0979,0.0722 -0.1566,0.083 -0.1383,0.0253 -0.2774,0.0357 -0.4174,0.0311 -0.0983,-0.0138 -0.1998,-0.0207 -0.3043,-0.0208 -0.108,10e-5 -0.2094,0.0139 -0.3044,0.0415 -0.0311,0.0028 -0.0601,-0.0041 -0.0869,-0.0207 -0.1449,0 -0.2899,0 -0.4348,0 0,0.0345 0,0.0691 0,0.1036 0,0.0484 0,0.0968 0,0.1452 -0.023,0.0817 -0.0346,0.1716 -0.0348,0.2695 9e-4,0.1046 0.0067,0.2083 0.0174,0.3109 0,0.0484 0,0.0968 0,0.1452 -0.0171,0.0996 -0.023,0.2032 -0.0174,0.3109 -0.0731,-0.0065 -0.1426,4e-4 -0.2087,0.0208 -0.1851,0.026 -0.3706,0.026 -0.5565,0 -0.0319,-0.9945 -0.0434,-1.9896 -0.0348,-2.9854 0.7483,-0.0092 1.4961,0.0012 2.2435,0.0311 0.2735,0.0128 0.4184,0.1821 0.4348,0.5079 z m -1.8435,-0.1036 c 0.342,0 0.6841,0 1.0261,0 0,0.2073 0,0.4146 0,0.6219 -0.0049,0.0816 -0.0281,0.1542 -0.0696,0.2177 -0.3182,0.0291 -0.637,0.0394 -0.9565,0.0311 0,-0.2902 0,-0.5805 0,-0.8707 z"
         fill="#214c84"
         id="path50" />
      <path
         opacity="0.812"
         fill-rule="evenodd"
         clip-rule="evenodd"
         d="m 9.33043,13.1311 c 0.10886,-0.004 0.2016,0.0376 0.27827,0.1251 -0.09209,-0.0483 -0.18484,-0.09 -0.27827,-0.1251 z"
         fill="#69585c"
         id="path52" />
      <path
         opacity="0.671"
         fill-rule="evenodd"
         clip-rule="evenodd"
         d="m 19.9913,12.9238 c 0,0.0829 0,0.1658 0,0.2488 -0.0156,0.1552 -0.0446,0.3072 -0.087,0.4561 0.0293,-0.2375 0.0583,-0.4725 0.087,-0.7049 z"
         fill="#5b595f"
         id="path54" />
      <path
         opacity="0.78"
         fill-rule="evenodd"
         clip-rule="evenodd"
         d="m 16.0087,14.1262 c 0,-0.2073 0,-0.4146 0,-0.6219 -0.342,0 -0.6841,0 -1.0261,0 0.3349,-0.0207 0.6827,-0.0277 1.0435,-0.0208 0.0057,0.218 -10e-5,0.4322 -0.0174,0.6427 z"
         fill="#635c5a"
         id="path56" />
      <path
         opacity="0.94"
         fill-rule="evenodd"
         clip-rule="evenodd"
         d="m 16.8261,13.6079 c 0.0232,0.1866 0.0232,0.3732 0,0.5598 -0.0232,-0.1866 -0.0232,-0.3732 0,-0.5598 z"
         fill="#525667"
         id="path58" />
      <path
         opacity="0.412"
         fill-rule="evenodd"
         clip-rule="evenodd"
         d="m 19.0522,14.6031 c -0.0406,0.0625 -0.087,0.1181 -0.1392,0.1667 0.029,-0.0764 0.0754,-0.132 0.1392,-0.1667 z"
         fill="#6c5d5a"
         id="path60" />
      <path
         opacity="0.729"
         fill-rule="evenodd"
         clip-rule="evenodd"
         d="m 16.113,14.7483 c -0.1986,0.017 -0.4015,0.024 -0.6087,0.0208 0.095,-0.0277 0.1964,-0.0416 0.3044,-0.0417 0.1045,10e-5 0.206,0.007 0.3043,0.0209 z"
         fill="#585256"
         id="path62" />
      <path
         opacity="0.438"
         fill-rule="evenodd"
         clip-rule="evenodd"
         d="M 15.4174,14.7482 C 15.2815,14.7688 15.1423,14.7758 15,14.769 c 0.0047,0.0333 -0.0011,0.0611 -0.0174,0.0834 0,-0.0348 0,-0.0695 0,-0.1042 0.1449,0 0.2899,0 0.4348,0 z"
         fill="#7b5e4f"
         id="path64" />
      <path
         opacity="0.965"
         fill-rule="evenodd"
         clip-rule="evenodd"
         d="m 9.01739,14.9557 c -0.39445,-0.0251 -0.78866,-0.0251 -1.18261,0 -0.00193,-0.0129 -0.00772,-0.0233 -0.01739,-0.0313 0.2,-0.0034 0.4,-0.0069 0.6,-0.0104 0.20614,0 0.40614,0.0139 0.6,0.0417 z"
         fill="#435063"
         id="path66" />
      <path
         opacity="0.51"
         fill-rule="evenodd"
         clip-rule="evenodd"
         d="m 7.06956,13.0689 c 0,0.9951 0,1.9902 0,2.9854 0.03887,-0.0061 0.07366,8e-4 0.10435,0.0207 -0.04057,0 -0.08116,0 -0.12174,0 -0.00577,-1.0056 2e-5,-2.0076 0.01739,-3.0061 z"
         fill="#745e51"
         id="path68" />
      <path
         opacity="0.592"
         fill-rule="evenodd"
         clip-rule="evenodd"
         d="m 3.9913,14.5409 c 0.0058,0 0.0116,0 0.01739,0 0.02319,0.2487 0.02319,0.4975 0,0.7463 0.00495,-0.0397 -8.5e-4,-0.0742 -0.01739,-0.1037 0,-0.0276 0,-0.0553 0,-0.0829 0.02319,-0.0345 0.02319,-0.0691 0,-0.1036 0,-0.0277 0,-0.0553 0,-0.083 0.02319,-0.0345 0.02319,-0.0691 0,-0.1036 0,-0.0277 0,-0.0553 0,-0.083 0.02319,-0.0345 0.02319,-0.0691 0,-0.1036 0,-0.0277 0,-0.0553 0,-0.0829 z"
         fill="#534f50"
         id="path70" />
      <path
         opacity="0.265"
         fill-rule="evenodd"
         clip-rule="evenodd"
         d="m 4.84348,14.9762 c 0,0.2073 0,0.4147 0,0.622 0.05018,-0.0064 0.09656,5e-4 0.13913,0.0207 -0.05217,0 -0.10435,0 -0.15652,0 -0.0057,-0.218 1e-4,-0.4322 0.01739,-0.6427 z"
         fill="#7e614b"
         id="path72" />
      <path
         opacity="0.608"
         fill-rule="evenodd"
         clip-rule="evenodd"
         d="m 14.9826,14.997 c 0.0057,0.1972 -10e-5,0.3907 -0.0174,0.5804 -0.0107,-0.1026 -0.0165,-0.2063 -0.0174,-0.3109 2e-4,-0.0979 0.0118,-0.1878 0.0348,-0.2695 z"
         fill="#565864"
         id="path74" />
      <path
         opacity="0.588"
         fill-rule="evenodd"
         clip-rule="evenodd"
         d="m 18.1478,15.3287 c -0.0809,0.0761 -0.1736,0.1178 -0.2782,0.125 0.0879,-0.0537 0.1806,-0.0954 0.2782,-0.125 z"
         fill="#555666"
         id="path76" />
      <path
         opacity="0.02"
         fill-rule="evenodd"
         clip-rule="evenodd"
         d="m 18.8957,15.3701 c -0.0607,0.0817 -0.1361,0.1372 -0.2261,0.1668 0.0665,-0.0712 0.1418,-0.1268 0.2261,-0.1668 z"
         fill="#705f5d"
         id="path78" />
      <path
         opacity="0.596"
         fill-rule="evenodd"
         clip-rule="evenodd"
         d="M 4.0087,16.5596 C 4.03069,16.5807 4.04229,16.612 4.04348,16.6534 4.04333,16.689 4.03753,16.7202 4.02609,16.7472 4.0091,16.6891 4.00331,16.6266 4.0087,16.5596 Z"
         fill="#675b59"
         id="path80" />
      <path
         opacity="0.912"
         fill-rule="evenodd"
         clip-rule="evenodd"
         d="m 6.2,15.6396 c 0.13925,-0.0034 0.27838,0 0.41739,0.0104 0.00734,0.1339 0.01313,0.2687 0.01739,0.4043 C 6.62684,16.0708 6.61524,16.0777 6.6,16.075 c 0,-0.1382 0,-0.2764 0,-0.4146 -0.13656,0.0067 -0.26988,-2e-4 -0.4,-0.0208 z"
         fill="#454852"
         id="path82" />
      <path
         opacity="0.557"
         fill-rule="evenodd"
         clip-rule="evenodd"
         d="m 9.83478,15.225 c 0,0.2764 0,0.5529 0,0.8293 -0.26666,0 -0.53334,0 -0.8,0 0,-0.1244 0,-0.2488 0,-0.3732 0.0172,0.1135 0.02299,0.231 0.01739,0.3524 0.25508,0 0.51014,0 0.76522,0 -0.00572,-0.2731 9e-5,-0.5427 0.01739,-0.8085 z"
         fill="#745f50"
         id="path84" />
      <path
         opacity="0.443"
         fill-rule="evenodd"
         clip-rule="evenodd"
         d="m 14.9652,15.7226 c 0,0.1105 0,0.2211 0,0.3317 -0.0753,0 -0.1507,0 -0.2261,0 0.0661,-0.0204 0.1356,-0.0273 0.2087,-0.0208 -0.0056,-0.1077 3e-4,-0.2113 0.0174,-0.3109 z"
         fill="#645b5b"
         id="path86" />
      <path
         opacity="0.012"
         fill-rule="evenodd"
         clip-rule="evenodd"
         d="m 17.313,15.7018 c -0.0028,0.1039 10e-5,0.2076 0.0087,0.311 0.0804,0.0145 0.1586,0.0214 0.2348,0.0207 -0.084,0.0272 -0.1681,0.0272 -0.2522,0 -0.0362,-0.1143 -0.0333,-0.2248 0.0087,-0.3317 z"
         fill="#55525c"
         id="path88" />
    </g>
  </g>
  <defs
     id="defs100">
    <linearGradient
       id="paint0_linear_3_29"
       x1="12"
       y1="2"
       x2="12"
       y2="12"
       gradientUnits="userSpaceOnUse">
      <stop
         stop-color="white"
         id="stop92" />
      <stop
         offset="1"
         stop-color="#D9D9D9"
         id="stop94" />
    </linearGradient>
    <clipPath
       id="clip0_3_29">
      <rect
         width="16"
         height="9.3500004"
         fill="#ffffff"
         transform="translate(4,8)"
         id="rect97"
         x="0"
         y="0" />
    </clipPath>
  </defs>
</svg>
